<svg xmlns="http://www.w3.org/2000/svg" width="520" height="128" viewBox="0 0 520 128" role="img" aria-label="APITypeGen">
  <defs><linearGradient id="brand" x1="16" y1="12" x2="112" y2="116" gradientUnits="userSpaceOnUse"><stop stop-color="#3157E8"/><stop offset=".52" stop-color="#1677E8"/><stop offset="1" stop-color="#09B7C9"/></linearGradient><linearGradient id="word" x1="148" y1="34" x2="260" y2="92" gradientUnits="userSpaceOnUse"><stop stop-color="#3157E8"/><stop offset="1" stop-color="#078DAF"/></linearGradient></defs>
  <rect x="8" y="8" width="112" height="112" rx="28" fill="url(#brand)"/>
  <path d="M40 48L27 64L40 80M90 48L103 64L90 80" fill="none" stroke="#D8E1EA" stroke-width="7" stroke-linecap="round" stroke-linejoin="round"/><path d="M53 35H77C81 35 83 37 83 41C83 45 81 47 77 47H70V89C70 93 68 95 65 95C62 95 60 93 60 89V47H53C49 47 47 45 47 41C47 37 49 35 53 35Z" fill="#FFF"/>
  <text x="148" y="82" fill="url(#word)" font-family="Inter,ui-sans-serif,-apple-system,BlinkMacSystemFont,'Segoe UI',sans-serif" font-size="58" font-weight="800" letter-spacing="-2">API</text><text x="244" y="82" fill="#14213D" font-family="Inter,ui-sans-serif,-apple-system,BlinkMacSystemFont,'Segoe UI',sans-serif" font-size="58" font-weight="720" letter-spacing="-2">TypeGen</text>
</svg>
