<svg xmlns="http://www.w3.org/2000/svg" width="208" height="44" viewBox="0 0 208 44" role="img" aria-label="APITypeGen">
  <defs><linearGradient id="brand" x1="2" y1="2" x2="42" y2="42" gradientUnits="userSpaceOnUse"><stop stop-color="#3157E8"/><stop offset=".52" stop-color="#1677E8"/><stop offset="1" stop-color="#09B7C9"/></linearGradient></defs>
  <rect x="1" y="1" width="42" height="42" rx="10" fill="url(#brand)"/>
  <path d="M14.5 17L10.5 22L14.5 27M31.5 17L35.5 22L31.5 27" fill="none" stroke="#D8E1EA" stroke-width="2.4" stroke-linecap="round" stroke-linejoin="round"/><path d="M19 12.5H27C28.4 12.5 29 13.3 29 14.5C29 15.7 28.4 16.5 27 16.5H25V30C25 31.3 24.2 32 23 32C21.8 32 21 31.3 21 30V16.5H19C17.6 16.5 17 15.7 17 14.5C17 13.3 17.6 12.5 19 12.5Z" fill="#FFF"/>
  <text x="52" y="28.5" fill="#3157E8" font-family="Inter,ui-sans-serif,-apple-system,'Segoe UI',sans-serif" font-size="20" font-weight="800">API</text><text x="86" y="28.5" fill="#14213D" font-family="Inter,ui-sans-serif,-apple-system,'Segoe UI',sans-serif" font-size="20" font-weight="700">TypeGen</text>
</svg>
